{"title":"All Is Well (2015) DVDSCR - XviD - MP3{VikkyMaxx} [CTRC]","uid":12265317,"size":740560983,"categoryP":"video","categoryS":"movies","magnet":"?xt=urn:btih:c4e65aef3a97d2d8bd8d8a62faf5fa78e180927c&amp;dn=All+Is+Well+%282015%29+DVDSCR+-+XviD+-+MP3%7BVikkyMaxx%7D+%5BCTRC%5D&amp;tr=udp%3A%2F%2Ftracker.openbittorrent.com%3A80&amp;tr=udp%3A%2F%2Fopen.demonii.com%3A1337&amp;tr=udp%3A%2F%2Ftracker.coppersurfer.tk%3A6969&amp;tr=udp%3A%2F%2Fexodus.desync.com%3A6969","seeders":1,"leechers":0,"uploader":"shailendramaxx","files":22,"time":1440224895,"description":"VikkyMaxx Presents :-\n\nAll Is Well (2015) DVDSCR - XviD - MP3{VikkyMaxx}[CTRC]\n\n\nIMDB :- http://www.imdb.com/title/tt3547616\n\nRatings :- 5.3/10 \n\nPlot :- A road trip, undertaken by Rishi Kapoor and Abhishek Bachchan, is later joined by their mother\n\nCast :- Rishi Kapoor, Abhishek Bachchan, Asin \n\nGeneral:- \n \nComplete name : All Is Well (2015) DVDSCR - XviD - MP3{VikkyMaxx}[CTRC]\nFormat : Matroska \nFormat version : Version 2 \nFile size : 698 MiB \nDuration : 2h 5mn \nOverall bit rate : 780 Kbps \nEncoded date : UTC 2015-08-22 03:00:44 \nWriting application : mkvmerge v7.7.0 ('Six Voices') 32bit built on Feb 28 2015 23:23:00 \nWriting library : libebml v1.3.1 + libmatroska v1.4.2 \nDURATION : 02:05:07.174000000 \nNUMBER_OF_FRAMES : 215538 \nNUMBER_OF_BYTES : 420401740 \nSTATISTICS_WRITING_APP : mkvmerge v7.7.0 ('Six Voices') 32bit built on Feb 28 2015 23:23:00 \nSTATISTICS_WRITING_DATE_UTC : 2015-08-22 03:00:44 \nSTATISTICS_TAGS : BPS DURATION NUMBER_OF_FRAMES NUMBER_OF_BYTES \nSource : Team ICTV ( A Big Thanks)\n\nVideo:-\n \nID : 1 \nFormat : AVC \nFormat/Info : Advanced Video Codec \nFormat profile : &lt;a class=&quot;__cf_email__&quot; href=&quot;/cdn-cgi/l/email-protection&quot; data-cfemail=&quot;367e5f515e767a041807&quot;&gt;[email&amp;#160;protected]&lt;/a&gt;&lt;script data-cfhash='f9e31' type=&quot;text/javascript&quot;&gt;\n/* &lt;![CDATA[ */!function(){try{var t=&quot;currentScript&quot;in document?document.currentScript:function(){for(var t=document.getElementsByTagName(&quot;script&quot;),e=t.length;e--;)if(t[e].getAttribute(&quot;data-cfhash&quot;))return t[e]}();if(t&amp;&amp;t.previousSibling){var e,r,n,i,c=t.previousSibling,a=c.getAttribute(&quot;data-cfemail&quot;);if(a){for(e=&quot;&quot;,r=parseInt(a.substr(0,2),16),n=2;a.length-n;n+=2)i=parseInt(a.substr(n,2),16)^r,e+=String.fromCharCode(i);e=document.createTextNode(e),c.parentNode.replaceChild(e,c)}t.parentNode.removeChild(t);}}catch(u){}}()/* ]]&gt; */&lt;/script&gt; \nFormat settings, CABAC : Yes \nFormat settings, ReFrames : 4 frames \nCodec ID : V_MPEG4/ISO/AVC \nDuration : 2h 5mn \nBit rate : 330 Kbps \nWidth : 640 pixels \nHeight : 272 pixels \nDisplay aspect ratio : 2.35:1 \nFrame rate mode : Constant \nFrame rate : 25.000 fps \nColor space : YUV \nChroma subsampling : 4:2:0 \nBit depth : 8 bits \nScan type : Progressive \nBits/(Pixel*Frame) : 0.076 \nStream size : 283 MiB (41%) \nWriting library : x264 core 146 r2538 121396c \nEncoding settings : cabac=1 / ref=3 / deblock=1:0:0 \nDefault : Yes \nForced : No \n\nAudio:-\n \nID : 2 \nFormat : AC-3 \nFormat/Info : Audio Coding 3 \nMode extension : CM (complete main) \nFormat settings, Endianness : Big \nCodec ID : A_AC3 \nDuration : 2h 5mn \nBit rate mode : Constant \nBit rate : 448 Kbps \nChannel(s) : 2 channels \nChannel positions : Front: L R \nSampling rate : 44.1 KHz \nCompression mode : Lossy \nStream size : 401 MiB (57%) \nDefault : Yes \nForced : No \nLanguage : HINDI\n\n\nSCREENS :-\n\n &lt;a href=&quot;\nhttp://i.imgur.com/mTcTeMi.png&quot; rel=&quot;nofollow&quot; target=&quot;_NEW&quot;&gt;\nhttp://i.imgur.com/mTcTeMi.png&lt;/a&gt;\n &lt;a href=&quot;\nhttp://i.imgur.com/iR4DxPh.png&quot; rel=&quot;nofollow&quot; target=&quot;_NEW&quot;&gt;\nhttp://i.imgur.com/iR4DxPh.png&lt;/a&gt;\n &lt;a href=&quot;\nhttp://i.imgur.com/goSi50U.png&quot; rel=&quot;nofollow&quot; target=&quot;_NEW&quot;&gt;\nhttp://i.imgur.com/goSi50U.png&lt;/a&gt;\n &lt;a href=&quot;\nhttp://i.imgur.com/aLSNoBA.png&quot; rel=&quot;nofollow&quot; target=&quot;_NEW&quot;&gt;\nhttp://i.imgur.com/aLSNoBA.png&lt;/a&gt;\n &lt;a href=&quot;\nhttp://i.imgur.com/N3YahTx.png&quot; rel=&quot;nofollow&quot; target=&quot;_NEW&quot;&gt;\nhttp://i.imgur.com/N3YahTx.png&lt;/a&gt;\n &lt;a href=&quot;\nhttp://i.imgur.com/jvPZcz0.png&quot; rel=&quot;nofollow&quot; target=&quot;_NEW&quot;&gt;\nhttp://i.imgur.com/jvPZcz0.png&lt;/a&gt;\n &lt;a href=&quot;\nhttp://i.imgur.com/rQd5cFh.png&quot; rel=&quot;nofollow&quot; target=&quot;_NEW&quot;&gt;\nhttp://i.imgur.com/rQd5cFh.png&lt;/a&gt;\n &lt;a href=&quot;\nhttp://i.imgur.com/PwP3SMV.png&quot; rel=&quot;nofollow&quot; target=&quot;_NEW&quot;&gt;\nhttp://i.imgur.com/PwP3SMV.png&lt;/a&gt;\n &lt;a href=&quot;\nhttp://i.imgur.com/QyuAy3k.png&quot; rel=&quot;nofollow&quot; target=&quot;_NEW&quot;&gt;\nhttp://i.imgur.com/QyuAy3k.png&lt;/a&gt;\n &lt;a href=&quot;\nhttp://i.imgur.com/6925HNJ.png&quot; rel=&quot;nofollow&quot; target=&quot;_NEW&quot;&gt;\nhttp://i.imgur.com/6925HNJ.png&lt;/a&gt;\n &lt;a href=&quot;\nhttp://i.imgur.com/JYhjERX.png&quot; rel=&quot;nofollow&quot; target=&quot;_NEW&quot;&gt;\nhttp://i.imgur.com/JYhjERX.png&lt;/a&gt;\n                                                                        \n           ********** PLEASE SEED AS LONG AS YOU CAN AFTER DOWNLOAD **********\n                       \n                              ***** THANK YOU REGARDS - VikkyMaxx *****","torrent":{"xt":"urn:btih:c4e65aef3a97d2d8bd8d8a62faf5fa78e180927c","amp;dn":"All+Is+Well+%282015%29+DVDSCR+-+XviD+-+MP3%7BVikkyMaxx%7D+%5BCTRC%5D","amp;tr":["udp%3A%2F%2Ftracker.openbittorrent.com%3A80","udp%3A%2F%2Fopen.demonii.com%3A1337","udp%3A%2F%2Ftracker.coppersurfer.tk%3A6969","udp%3A%2F%2Fexodus.desync.com%3A6969"],"infoHash":"c4e65aef3a97d2d8bd8d8a62faf5fa78e180927c","infoHashBuffer":{"type":"Buffer","data":[196,230,90,239,58,151,210,216,189,141,138,98,250,245,250,120,225,128,146,124]},"announce":[],"urlList":[]}}